<?xml version="1.0" standalone="no"?>
<!DOCTYPE svg PUBLIC "-//W3C//DTD SVG 20010904//EN"
 "http://www.w3.org/TR/2001/REC-SVG-20010904/DTD/svg10.dtd">
<svg version="1.0" xmlns="http://www.w3.org/2000/svg"
 width="820.000000pt" height="820.000000pt" viewBox="0 0 820.000000 820.000000"
 preserveAspectRatio="xMidYMid meet">

<g transform="translate(0.000000,820.000000) scale(0.100000,-0.100000)"
fill="#000000" stroke="none">
<path d="M4057 7723 c-11 -19 -19 -123 -9 -123 6 0 12 29 14 65 3 66 3 71 -5
58z"/>
<path d="M3831 7360 c-117 -42 -173 -124 -177 -260 l-3 -85 9 74 c11 85 41
144 97 190 20 17 49 33 64 36 25 6 46 23 63 53 9 15 12 15 -53 -8z"/>
<path d="M4019 7329 c-5 -25 -56 -645 -53 -648 9 -10 13 10 23 133 6 71 13
131 15 133 2 2 72 -3 156 -12 141 -16 156 -16 226 0 l74 16 -1 42 c-1 23 -5
56 -10 72 -7 26 -8 24 -5 -12 2 -24 1 -45 -3 -47 -4 -3 -61 1 -127 9 -103 12
-120 12 -127 -1 -15 -26 -24 -14 -37 48 -10 47 -11 63 -2 66 36 12 -16 104
-101 181 -15 14 -27 23 -28 20z m78 -132 c18 -35 16 -37 -36 -44 -46 -6 -48
-1 -35 80 l7 38 24 -23 c14 -13 32 -36 40 -51z"/>
<path d="M3256 7061 l-58 -14 6 -76 c8 -87 19 -135 47 -207 l20 -52 42 13
c100 29 89 34 151 -58 60 -91 164 -196 251 -254 45 -29 59 -34 77 -26 20 9 17
13 -43 53 -142 96 -229 190 -292 317 -21 42 -38 63 -51 65 -25 4 -51 81 -61
184 -4 43 -12 70 -19 70 -6 0 -37 -7 -70 -15z"/>
<path d="M3926 6268 c-4 -29 -15 -156 -26 -283 -12 -126 -23 -255 -26 -285 -5
-46 -3 -53 8 -39 7 9 29 19 48 23 19 4 44 13 55 22 18 14 16 15 -34 8 l-54 -7
7 104 c8 121 33 379 41 427 l6 33 46 -33 c48 -34 103 -101 103 -125 0 -8 -12
-13 -32 -13 -18 0 -50 -5 -70 -10 -35 -10 -36 -12 -27 -43 5 -17 9 -48 9 -67
0 -60 9 -66 81 -52 34 6 66 17 71 24 4 7 5 35 2 61 -6 39 -3 50 11 61 16 12
16 15 -8 62 -14 27 -43 67 -65 88 -40 39 -119 96 -133 96 -4 0 -10 -24 -13
-52z"/>
<path d="M4394 6210 c28 -105 26 -287 -4 -402 -21 -78 -52 -139 -67 -134 -8 3
-11 1 -8 -4 3 -6 17 -10 30 -10 20 0 26 9 43 68 29 94 42 183 42 287 0 86 -19
198 -35 213 -4 4 -5 -4 -1 -18z"/>
<path d="M3127 6131 l-68 -14 6 -56 c11 -102 36 -222 56 -277 18 -47 22 -52
42 -45 12 4 45 9 72 10 l50 2 25 -48 c25 -48 123 -177 153 -201 13 -11 31 -9
114 16 284 85 545 142 648 142 30 0 55 5 55 10 0 10 -59 7 -160 -7 -25 -4 -61
-7 -80 -8 -19 -1 -48 -7 -63 -13 -16 -7 -32 -10 -37 -7 -5 3 -30 -3 -57 -13
-62 -24 -126 -35 -117 -20 4 6 -3 4 -17 -5 -13 -9 -34 -17 -48 -17 -31 0 -101
-21 -96 -29 2 -4 -5 -7 -16 -7 -10 0 -19 5 -19 10 0 5 -8 2 -17 -6 -10 -8 -25
-19 -33 -23 -13 -8 -13 -6 -2 7 11 14 11 16 -6 12 -31 -9 -124 102 -173 204
-23 48 -45 94 -49 102 -4 8 -14 14 -23 12 -19 -3 -32 34 -47 135 -6 43 -15 94
-18 113 l-7 35 -68 -14z"/>
<path d="M3534 6059 c4 -22 13 -55 21 -72 12 -25 14 -27 10 -7 -3 14 -8 46
-12 73 -3 26 -10 47 -16 47 -6 0 -7 -16 -3 -41z"/>
<path d="M3633 5983 c-23 -3 -33 -10 -36 -26 -4 -29 56 -146 94 -182 l29 -29
1 67 c2 171 1 176 -11 157 -8 -12 -10 -12 -16 3 -3 9 -11 16 -18 15 -6 0 -25
-3 -43 -5z"/>
<path d="M3825 5620 c-13 -6 -15 -9 -5 -9 8 0 22 4 30 9 18 12 2 12 -25 0z"/>
<path d="M3187 5559 c-25 -19 -63 -77 -55 -84 8 -7 113 -25 148 -25 69 0 75 9
27 45 -24 18 -51 45 -61 59 -20 31 -23 31 -59 5z"/>
<path d="M5722 5395 c-75 -23 -107 -43 -126 -79 l-19 -35 34 -30 c18 -17 42
-34 51 -37 10 -3 18 -10 18 -15 0 -5 5 -9 11 -9 6 0 26 -12 45 -26 23 -18 34
-22 35 -13 0 8 4 6 8 -5 6 -15 11 -12 36 25 16 24 50 72 77 107 26 35 48 68
48 73 0 16 -102 59 -140 58 -19 0 -54 -6 -78 -14z"/>
<path d="M4084 5133 c-21 -14 -70 -48 -109 -74 -99 -68 -149 -117 -168 -167
-14 -34 -15 -46 -5 -62 7 -11 20 -20 28 -20 24 0 110 58 199 134 93 80 126
119 133 160 12 62 -15 72 -78 29z"/>
<path d="M5460 4780 c-15 -15 -20 -33 -20 -78 0 -164 198 -381 365 -399 95
-11 109 54 41 192 -41 83 -127 196 -180 238 -83 64 -169 84 -206 47z m166 -31
c123 -76 278 -333 245 -405 -9 -21 -18 -24 -62 -24 -68 0 -156 46 -229 120
-117 118 -167 310 -88 339 28 10 93 -4 134 -30z"/>
<path d="M5501 4746 c-41 -49 84 -195 145 -172 37 14 -10 123 -69 160 -37 24
-63 28 -76 12z"/>
<path d="M4965 4704 c-37 -9 -100 -59 -118 -94 -57 -109 58 -325 213 -402 75
-37 141 -44 221 -24 152 39 178 161 66 312 -108 146 -270 234 -382 208z m185
-49 c70 -36 179 -144 215 -215 79 -153 -2 -262 -181 -247 -85 6 -158 43 -223
112 -67 71 -104 150 -105 226 -1 68 19 101 80 137 53 31 137 26 214 -13z"/>
<path d="M4974 4635 c-21 -32 -13 -64 27 -110 70 -79 196 -65 175 20 -23 90
-162 152 -202 90z"/>
<path d="M6429 3331 c-20 -22 -47 -65 -58 -96 -21 -55 -28 -101 -13 -79 9 14
79 17 120 5 83 -25 137 51 102 143 -29 76 -93 87 -151 27z"/>
<path d="M5805 3158 c-41 -42 -85 -134 -85 -178 0 -28 20 -25 21 3 0 12 3 17
5 11 3 -8 17 -9 44 -3 23 5 49 5 63 0 28 -11 74 -3 105 17 45 29 14 154 -45
181 -41 19 -64 12 -108 -31z"/>
<path d="M1686 3030 c4 -14 33 -79 65 -145 53 -108 109 -200 223 -364 20 -30
40 -68 43 -83 3 -15 10 -28 15 -28 5 0 7 -4 3 -10 -3 -5 -1 -17 4 -27 9 -16
19 -40 51 -118 34 -82 50 -156 66 -304 5 -49 21 -82 70 -153 19 -26 34 -52 34
-57 0 -5 7 -17 17 -26 9 -9 12 -20 7 -23 -5 -4 -14 -15 -19 -26 -20 -36 -188
-25 -231 15 -43 40 -25 0 19 -45 87 -87 191 -107 557 -110 209 -2 282 -6 345
-20 44 -10 82 -22 83 -27 2 -5 10 -9 18 -9 21 0 136 -41 159 -56 11 -8 30 -14
42 -14 13 0 23 -6 23 -14 0 -8 15 -17 36 -20 19 -4 38 -14 41 -21 3 -10 10
-12 21 -6 22 11 42 3 42 -15 0 -8 8 -14 19 -14 26 0 71 -45 71 -72 0 -13 4
-29 9 -37 20 -31 26 21 23 192 -2 159 0 183 17 223 11 25 26 51 34 58 22 23
77 47 89 40 6 -4 8 -3 5 3 -8 13 135 76 155 68 8 -3 21 1 28 10 7 8 23 15 36
15 12 0 26 4 29 10 3 5 45 10 92 10 66 0 91 -4 105 -17 14 -12 18 -13 18 -2 0
10 4 10 16 -3 14 -14 16 -46 15 -245 -1 -173 2 -239 13 -275 8 -25 12 -49 9
-52 -4 -3 -1 -6 5 -6 6 0 26 -16 43 -35 18 -19 38 -35 45 -35 7 0 16 -9 19
-20 3 -11 15 -20 26 -20 10 0 19 -5 19 -11 0 -6 9 -24 21 -40 20 -28 19 -69
-2 -69 -5 0 -9 -5 -9 -10 0 -16 -52 -70 -67 -70 -7 0 -13 -4 -13 -8 0 -5 -26
-14 -57 -21 -32 -7 -80 -18 -108 -24 -117 -27 -349 -9 -479 37 -43 15 -126 83
-126 103 0 7 -5 13 -10 13 -18 0 19 -73 56 -111 20 -20 48 -42 62 -50 15 -7
34 -18 42 -24 37 -28 195 -58 300 -58 269 1 463 110 485 271 6 44 14 59 52 96
25 25 51 42 58 40 7 -3 18 4 25 15 6 13 21 21 36 21 13 0 36 7 49 16 23 15
109 40 245 70 36 8 112 17 170 20 133 6 129 6 263 5 249 -3 429 48 499 142 37
49 41 58 24 51 -9 -3 -16 -10 -16 -15 0 -10 -38 -31 -65 -35 -11 -2 -27 -5
-35 -6 -8 -1 -39 1 -67 6 -47 7 -53 10 -53 33 0 34 17 63 62 102 21 18 38 39
38 45 0 7 13 25 29 40 15 15 34 46 41 69 7 23 18 51 26 62 8 11 14 31 14 45 0
14 7 57 15 95 8 39 17 85 20 104 8 46 12 51 42 51 115 0 346 116 476 238 66
62 137 148 137 164 0 6 -17 -12 -37 -40 -21 -28 -41 -48 -45 -46 -5 3 -8 -2
-8 -10 0 -8 -4 -18 -10 -21 -5 -3 -7 0 -4 8 3 8 0 18 -6 22 -6 4 -9 1 -8 -7 2
-7 -3 -12 -10 -10 -8 1 -10 -2 -7 -8 8 -13 -37 -58 -53 -52 -7 2 -12 -1 -12
-8 0 -6 -4 -9 -9 -5 -6 3 -15 -4 -21 -15 -6 -11 -15 -20 -21 -20 -6 0 -7 6 -3
13 4 6 -2 4 -13 -6 -31 -27 -95 -57 -106 -50 -6 3 -7 1 -3 -5 4 -7 1 -12 -7
-12 -7 0 -40 -9 -73 -19 -32 -11 -87 -22 -120 -24 -67 -5 -207 17 -212 33 -2
6 -12 10 -22 10 -9 0 -23 7 -30 15 -7 8 -18 15 -25 15 -36 0 -146 129 -200
234 -21 41 -99 117 -152 149 -18 10 -33 23 -33 28 0 5 -6 9 -14 9 -7 0 -20 7
-27 16 -12 15 -28 16 -129 9 -63 -4 -128 -8 -145 -7 -37 0 -206 -38 -221 -49
-6 -5 -31 -13 -55 -19 -86 -19 -139 -35 -139 -41 0 -4 -19 -10 -42 -14 -24 -4
-52 -13 -62 -21 -11 -7 -31 -11 -47 -7 -17 3 -29 1 -29 -5 0 -11 -9 -13 -125
-32 -38 -6 -97 -19 -130 -28 -50 -14 -107 -17 -340 -16 -155 1 -320 6 -370 13
-49 7 -130 16 -180 21 -146 15 -190 22 -196 31 -8 14 -153 40 -157 28 -5 -13
-69 -11 -95 3 -22 11 -119 32 -207 45 -25 3 -48 11 -52 16 -3 6 -32 11 -63 12
-32 2 -60 7 -64 12 -6 9 -36 19 -88 27 -12 2 -37 13 -57 24 -20 12 -55 26 -78
32 -24 6 -65 22 -93 34 -27 13 -61 27 -75 31 -14 4 -34 15 -45 25 -11 9 -46
29 -77 44 -31 16 -71 41 -87 57 -17 16 -36 29 -42 29 -6 0 -9 6 -6 13 3 8 1
20 -5 28 -8 11 -9 11 -5 -3 3 -9 -1 -24 -9 -35 -14 -17 -15 -17 -5 3 6 12 6
26 0 35 -6 10 -9 10 -9 2 0 -22 -16 -14 -28 15 -10 25 -11 25 -6 2z m1214
-1230 c0 -4 -10 -7 -23 -7 -15 0 -23 6 -24 18 -1 16 2 16 23 7 13 -6 24 -14
24 -18z m49 -29 c-6 -2 -18 4 -27 13 -15 15 -15 15 10 4 15 -7 23 -15 17 -17z
m2097 -8 c-2 -10 -8 -37 -11 -60 -4 -24 -11 -45 -15 -48 -5 -3 -7 -11 -5 -18
4 -8 -7 -13 -30 -14 -19 -1 -35 3 -35 8 0 5 -16 9 -35 9 -19 0 -35 3 -35 8 0
4 -18 7 -39 7 -22 1 -38 -2 -35 -6 2 -4 -9 -1 -26 7 -35 18 -40 28 -9 19 15
-5 19 -4 15 4 -4 6 0 11 8 11 15 0 99 30 196 71 56 23 63 23 56 2z"/>
<path d="M4795 1670 c-3 -6 1 -7 9 -4 18 7 21 14 7 14 -6 0 -13 -4 -16 -10z"/>
</g>
</svg>
