<?xml version="1.0" standalone="no"?>
<!DOCTYPE svg PUBLIC "-//W3C//DTD SVG 20010904//EN"
 "http://www.w3.org/TR/2001/REC-SVG-20010904/DTD/svg10.dtd">
<svg version="1.0" xmlns="http://www.w3.org/2000/svg"
 width="512.000000pt" height="512.000000pt" viewBox="0 0 512.000000 512.000000"
 preserveAspectRatio="xMidYMid meet">

<g transform="translate(0.000000,512.000000) scale(0.100000,-0.100000)"
fill="#000000" stroke="none">
<path d="M1935 5026 c-37 -16 -70 -52 -84 -89 -8 -19 -11 -360 -11 -1083 l0
-1054 -320 0 -320 0 0 241 0 241 -202 -4 c-191 -3 -206 -5 -253 -28 -64 -31
-124 -91 -155 -155 -25 -49 -25 -55 -28 -332 l-3 -283 -240 0 -239 0 0 -1200
0 -1200 2160 0 2160 0 0 160 0 160 160 0 160 0 0 879 0 879 109 4 c118 3 141
12 185 72 21 27 21 30 21 1366 0 1336 0 1339 -21 1366 -11 15 -33 37 -48 48
-27 21 -30 21 -1514 23 -1224 2 -1492 0 -1517 -11z m1105 -523 l0 -378 120
120 120 120 80 -80 80 -80 80 80 80 80 120 -120 120 -120 0 378 0 377 520 0
520 0 0 -560 0 -560 -640 0 -640 0 0 -480 0 -480 -800 0 -800 0 0 1040 0 1040
520 0 520 0 0 -377z m640 195 l0 -182 -40 39 -40 39 -80 -79 -80 -80 -80 80
-80 79 -40 -39 -40 -39 0 182 0 182 240 0 240 0 0 -182z m1200 -1738 l0 -640
-80 0 -80 0 0 240 0 240 -480 0 -480 0 0 400 0 400 560 0 560 0 0 -640z
m-3840 0 l0 -160 -95 0 c-109 0 -148 12 -188 59 -48 57 -48 145 0 202 40 47
75 58 186 59 l97 0 0 -160z m-241 -306 c37 -12 351 -14 1903 -14 l1858 0 0
-1040 0 -1040 -80 0 -80 0 0 960 0 960 -1840 0 -1840 0 0 101 c0 92 2 101 18
94 9 -4 37 -14 61 -21z m3441 -1374 l0 -1040 -2000 0 -2000 0 0 1040 0 1040
2000 0 2000 0 0 -1040z"/>
<path d="M3920 3360 l0 -80 80 0 80 0 0 80 0 80 -80 0 -80 0 0 -80z"/>
<path d="M4240 3360 l0 -80 240 0 240 0 0 80 0 80 -240 0 -240 0 0 -80z"/>
<path d="M3920 3040 l0 -80 400 0 400 0 0 80 0 80 -400 0 -400 0 0 -80z"/>
<path d="M400 1280 l0 -880 1840 0 1840 0 0 880 0 880 -1840 0 -1840 0 0 -880z
m380 695 c-35 -93 -102 -160 -195 -195 l-25 -10 0 115 0 115 115 0 115 0 -10
-25z m944 17 c-5 -4 -35 -29 -66 -55 -118 -99 -225 -272 -270 -439 -32 -118
-32 -318 0 -436 45 -167 152 -340 270 -439 31 -26 61 -51 66 -55 6 -4 -166 -8
-381 -8 l-391 0 -6 33 c-12 62 -66 158 -123 218 -58 61 -162 122 -229 135
l-34 6 0 328 0 328 33 6 c62 12 158 66 218 123 61 58 122 162 135 229 l6 34
391 0 c215 0 387 -4 381 -8z m731 -26 c113 -36 198 -89 290 -181 91 -91 144
-175 182 -290 23 -71 26 -96 26 -215 0 -119 -3 -144 -26 -215 -38 -115 -91
-199 -182 -290 -91 -91 -175 -144 -290 -182 -71 -23 -96 -26 -215 -26 -119 0
-144 3 -215 26 -114 38 -198 90 -290 182 -91 91 -144 175 -182 290 -23 71 -26
96 -26 215 -1 118 3 145 25 212 39 119 92 204 182 294 110 110 236 177 381
204 88 16 250 4 340 -24z m1079 2 c12 -63 66 -159 123 -219 58 -61 162 -122
229 -135 l34 -6 0 -328 0 -328 -34 -6 c-67 -13 -171 -74 -229 -135 -57 -60
-111 -156 -123 -218 l-6 -33 -392 0 -391 0 35 27 c146 111 264 293 316 489 25
96 25 312 0 408 -52 196 -170 378 -316 489 l-35 27 391 0 392 0 6 -32z m386
-83 l0 -115 -25 10 c-93 35 -160 102 -195 195 l-10 25 115 0 115 0 0 -115z
m-3282 -1129 c56 -29 115 -100 142 -171 l10 -25 -115 0 -115 0 0 115 0 115 25
-10 c14 -5 37 -16 53 -24z m3279 -193 c-3 -2 -54 -2 -115 -1 l-112 3 24 50
c30 64 87 121 151 151 l50 24 3 -112 c1 -61 1 -112 -1 -115z"/>
<path d="M2160 1760 l0 -80 -80 0 -80 0 0 -240 0 -240 160 0 160 0 0 -80 0
-80 -160 0 -160 0 0 -80 0 -80 80 0 80 0 0 -80 0 -80 80 0 80 0 0 80 0 80 80
0 80 0 0 240 0 240 -160 0 -160 0 0 80 0 80 160 0 160 0 0 80 0 80 -80 0 -80
0 0 80 0 80 -80 0 -80 0 0 -80z"/>
</g>
</svg>
