<?xml version="1.0" standalone="no"?>
<!DOCTYPE svg PUBLIC "-//W3C//DTD SVG 20010904//EN"
 "http://www.w3.org/TR/2001/REC-SVG-20010904/DTD/svg10.dtd">
<svg version="1.0" xmlns="http://www.w3.org/2000/svg"
 width="512.000000pt" height="512.000000pt" viewBox="0 0 512.000000 512.000000"
 preserveAspectRatio="xMidYMid meet">

<g transform="translate(0.000000,512.000000) scale(0.100000,-0.100000)"
fill="#000000" stroke="none">
<path d="M2630 5100 c-170 -29 -242 -50 -272 -81 -49 -48 -42 -70 105 -336
l134 -241 -48 -22 c-63 -28 -133 -106 -155 -172 -25 -75 -16 -171 23 -240 l30
-53 -77 -52 c-388 -265 -669 -774 -696 -1264 l-7 -116 -71 -23 c-170 -54 -319
-151 -571 -373 l-139 -124 -44 34 c-54 41 -87 42 -138 4 -76 -56 -682 -675
-689 -703 -4 -16 -4 -40 0 -55 9 -39 1229 -1259 1267 -1268 16 -4 40 -4 55 0
29 7 648 613 704 689 36 48 37 80 4 128 l-25 37 767 4 c822 3 794 1 894 53 60
30 115 80 747 672 595 559 623 586 657 654 33 67 35 76 35 172 0 90 -3 107
-28 161 -80 167 -266 257 -437 211 -68 -18 -120 -46 -257 -137 -65 -44 -119
-79 -121 -79 -2 0 -7 39 -11 88 -38 481 -317 977 -693 1233 l-80 54 30 53 c39
70 48 165 22 243 -22 64 -110 159 -166 178 l-37 12 134 241 c148 267 155 289
107 337 -31 30 -132 59 -303 86 -139 22 -511 19 -650 -5z m634 -194 c48 -8 90
-16 92 -18 2 -2 -45 -91 -104 -198 l-108 -194 -174 0 -174 0 -108 194 c-123
222 -124 201 17 219 50 6 101 13 115 15 51 9 358 -3 444 -18z m-54 -636 c112
-27 150 -56 150 -115 0 -77 -56 -114 -137 -90 -68 19 -182 35 -255 35 -68 0
-230 -24 -272 -40 -88 -33 -156 91 -88 160 22 21 49 32 123 49 131 29 140 30
269 26 74 -2 149 -11 210 -25z m-121 -381 c459 -74 881 -571 966 -1136 16
-104 19 -202 9 -274 l-6 -44 -233 -153 c-127 -83 -236 -152 -242 -152 -5 0
-20 12 -34 26 -13 14 -46 38 -74 54 -82 47 -145 60 -282 60 l-123 0 0 58 1 57
51 30 c167 96 196 327 58 465 -50 50 -103 75 -190 89 -81 13 -115 42 -115 101
0 30 7 47 28 68 42 41 96 37 167 -12 46 -31 61 -37 89 -32 86 14 113 107 51
171 -18 19 -57 47 -86 62 l-52 27 -4 79 c-3 75 -5 80 -37 109 -28 25 -39 29
-70 24 -23 -3 -46 -17 -63 -36 -25 -27 -28 -38 -28 -103 l-1 -72 -51 -30
c-167 -96 -196 -327 -58 -465 50 -50 103 -75 190 -89 81 -13 115 -42 115 -100
0 -70 -71 -117 -138 -92 -15 6 -47 29 -72 52 -60 56 -109 63 -153 23 -30 -28
-36 -44 -33 -92 2 -33 83 -115 146 -149 l55 -28 0 -57 c0 -57 0 -58 -29 -58
-18 0 -63 23 -127 66 -242 162 -444 227 -708 228 l-139 1 7 87 c12 175 68 374
153 543 245 487 662 759 1062 694z m1716 -1292 c127 -49 162 -194 73 -299 -13
-15 -297 -284 -633 -598 -467 -436 -623 -577 -665 -598 l-55 -27 -855 -3 -855
-2 -395 395 c-344 344 -393 396 -380 409 71 67 309 269 365 308 360 255 827
249 1204 -16 138 -97 109 -90 436 -96 284 -5 291 -6 328 -29 21 -13 50 -42 65
-64 23 -34 27 -52 27 -107 0 -77 -24 -122 -89 -168 l-39 -27 -404 -5 -405 -5
-29 -33 c-38 -42 -38 -82 0 -124 l29 -33 409 0 c367 0 413 2 459 18 163 57
265 198 268 368 l1 77 498 327 c274 180 510 331 525 335 38 12 82 10 117 -3z
m-3505 -1302 l525 -525 -258 -257 -257 -258 -527 527 -528 528 255 255 c140
140 257 255 260 255 3 0 241 -236 530 -525z"/>
<path d="M2134 1660 c-32 -13 -64 -59 -64 -91 0 -40 46 -88 91 -95 31 -5 42
-1 70 24 28 25 34 37 34 72 0 35 -6 47 -33 71 -33 29 -60 35 -98 19z"/>
</g>
</svg>
